# xmcd
#
# Track frame offsets:
#	183
#	15925
#	84115
#	97188
#	113720
#	124943
#	143950
#	161285
#	174838
#	186505
#	199840
#
# Disc length: 2873 seconds
#
# Revision: 0
# Processed by: cddbd v1.4PL0 Copyright (c) Steve Scherf et al.
# Submitted via: EasyCDDAExtractor 4.5.0.2
#
DISCID=870b370b
DTITLE=The Stars of Faith - Of Black Nativity
DYEAR=1990
DGENRE=Gospel
TTITLE0=When I Lay This Body Down
TTITLE1=God Is Miving
TTITLE2=Christ Is Born
TTITLE3=Children Go Where I Send Thee
TTITLE4=He'll Never Let Go Your Hand
TTITLE5=A Child Is Born
TTITLE6=Come In The Room
TTITLE7=Glory Glory To The King
TTITLE8=O Holly Night
TTITLE9=Come All Ye Faithfull
TTITLE10=Silent Night
EXTD=
EXTT0=
EXTT1=
EXTT2=
EXTT3=
EXTT4=
EXTT5=
EXTT6=
EXTT7=
EXTT8=
EXTT9=
EXTT10=
PLAYORDER=
